# xmcd
#
# Track frame offsets:
#	150
#	18152
#	36936
#	52528
#	68000
#	81877
#	109731
#	125837
#	142202
#	152198
#	168249
#	181594
#	195526
#	206045
#	221143
#	239631
#
# Disc length: 3387 seconds
#
# Revision: 1
# Processed by: cddbd v1.5.1PL0 Copyright (c) Steve Scherf et al.
# Submitted via: audiograbber 1.83.01
#
DISCID=e20d3910
DTITLE=Los Desastres - Sugar
DYEAR=2001
DGENRE=Alternative Country
TTITLE0=First Song
TTITLE1=Dirty Horses
TTITLE2=Voulevou
TTITLE3=Kaliumchlorid
TTITLE4=Pension Adelaide
TTITLE5=Far Far Away
TTITLE6=Too Much Monkey Business
TTITLE7=Spanics
TTITLE8=Sex
TTITLE9=Fucking Snow
TTITLE10=Slide
TTITLE11=Sand
TTITLE12=8Ohm For Dead Henry
TTITLE13=Fuck Off Go Home
TTITLE14=Borracho
TTITLE15=Brachial
EXTD=
EXTT0=
EXTT1=
EXTT2=
EXTT3=
EXTT4=
EXTT5=
EXTT6=
EXTT7=
EXTT8=
EXTT9=
EXTT10=
EXTT11=
EXTT12=
EXTT13=
EXTT14=
EXTT15=
PLAYORDER=
